<svg xmlns="http://www.w3.org/2000/svg" viewBox="0 0 360 240" fill="none">
  <defs>
    <linearGradient id="hub" x1="142" y1="82" x2="218" y2="158" gradientUnits="userSpaceOnUse">
      <stop stop-color="#1E607F"/>
      <stop offset="1" stop-color="#082F49"/>
    </linearGradient>
  </defs>

  <circle cx="180" cy="120" r="92" stroke="#8CB3C6" stroke-width="1.5" stroke-dasharray="4 8" opacity="0.22"/>
  <circle cx="180" cy="120" r="64" stroke="#8CB3C6" stroke-width="1.5" stroke-dasharray="4 8" opacity="0.3"/>
  <path d="M180 82V56M135 136L103 154M225 136L257 154" stroke="#83AEC2" stroke-width="2" stroke-dasharray="4 5" opacity="0.8"/>

  <g transform="translate(135 77)">
    <rect width="90" height="86" rx="27" fill="url(#hub)" stroke="#8CB5C7" stroke-opacity="0.6"/>
    <circle cx="45" cy="40" r="24" fill="#F8FBFD"/>
    <path d="M34 38C34 31 39 27 46 27C53 27 58 31 58 37C58 43 52 46 45 47C40 48 37 50 37 54" stroke="#0C3B57" stroke-width="4" stroke-linecap="round"/>
    <path d="M38 54C43 58 50 58 55 54" stroke="#FF7356" stroke-width="4" stroke-linecap="round"/>
    <rect x="26" y="70" width="38" height="5" rx="2.5" fill="#77D4CC" opacity="0.78"/>
  </g>

  <g transform="translate(128 6)">
    <rect width="104" height="54" rx="16" fill="#F8FBFD" stroke="#8AB0C2" stroke-opacity="0.55"/>
    <circle cx="25" cy="27" r="13" fill="#FFE2DB"/>
    <path d="M19 29V25C19 21 22 18 25 18C29 18 32 21 32 25V29M16 36C18 32 21 30 25 30C29 30 33 32 35 36" stroke="#D6573F" stroke-width="2.2" stroke-linecap="round"/>
    <rect x="47" y="18" width="39" height="7" rx="3.5" fill="#244F67"/>
    <rect x="47" y="31" width="28" height="5" rx="2.5" fill="#9FB9C6"/>
  </g>

  <g transform="translate(25 151)">
    <rect width="110" height="61" rx="17" fill="#F8FBFD" stroke="#8AB0C2" stroke-opacity="0.55"/>
    <circle cx="27" cy="30" r="14" fill="#DCF5F1"/>
    <path d="M19 35V26L27 20L35 26V35M24 35V29H30V35" stroke="#128F84" stroke-width="2.2" stroke-linecap="round" stroke-linejoin="round"/>
    <rect x="50" y="20" width="42" height="7" rx="3.5" fill="#244F67"/>
    <rect x="50" y="34" width="32" height="5" rx="2.5" fill="#9FB9C6"/>
  </g>

  <g transform="translate(225 151)">
    <rect width="110" height="61" rx="17" fill="#F8FBFD" stroke="#8AB0C2" stroke-opacity="0.55"/>
    <circle cx="27" cy="30" r="14" fill="#E5EEF8"/>
    <path d="M19 35V24H35V35M23 24V20H31V24M24 28H30M24 32H30" stroke="#346E98" stroke-width="2.2" stroke-linecap="round" stroke-linejoin="round"/>
    <rect x="50" y="20" width="42" height="7" rx="3.5" fill="#244F67"/>
    <rect x="50" y="34" width="32" height="5" rx="2.5" fill="#9FB9C6"/>
  </g>

  <circle cx="180" cy="56" r="5" fill="#FF7356"/>
  <circle cx="103" cy="154" r="5" fill="#18B6A4"/>
  <circle cx="257" cy="154" r="5" fill="#6AA7CF"/>
  <path d="M175 56H185M98 154H108M252 154H262" stroke="white" stroke-width="1.5" stroke-linecap="round" opacity="0.75"/>
</svg>
